<svg width="101" height="16" viewBox="0 0 101 16" fill="none" xmlns="http://www.w3.org/2000/svg">
<path d="M0 0.207014H5.61352C7.13599 0.207014 8.51368 0.268178 9.39634 0.559879C11.185 1.13858 11.9042 2.56886 11.9042 3.95679C11.9042 4.74251 11.6987 5.2224 11.638 5.36355C10.9795 6.85499 9.58315 7.14669 8.79856 7.31137C9.68122 7.45722 10.8534 7.64071 11.6567 8.55345C12.1704 9.11333 12.46 9.92257 12.46 10.7506C12.46 11.8892 11.8622 13.4842 10.0548 14.2934C8.96669 14.7686 7.79448 14.8344 6.12724 14.8344H0V0.207014ZM3.45591 2.94054V5.98459H6.19262C7.01457 5.96577 8.35023 5.92343 8.35023 4.40846C8.35023 3.00171 7.13599 2.93584 6.43547 2.93584H3.45591V2.94054ZM3.45591 8.63814V12.1809H5.98713C7.20137 12.1621 8.78455 12.1197 8.78455 10.4401C8.78455 8.68048 7.34615 8.65696 6.60359 8.63814H3.45591ZM17.6065 5.13772C18.307 4.53549 19.0682 4.0603 20.7121 3.89563V6.71385L19.6613 6.87852C18.1389 7.14669 17.6859 7.37723 17.6859 8.74164V14.8344H14.5195V3.99914H17.6018V5.13772H17.6065ZM33.0693 9.40503C33.0693 12.1386 31.5048 15.145 27.311 15.145C24.2895 15.145 21.5341 13.4042 21.5341 9.40503C21.5341 6.0928 23.6123 3.45808 27.722 3.68862C32.1026 3.93797 33.0693 7.4384 33.0693 9.40503ZM25.2562 7.27373C24.8639 7.89477 24.7191 8.64284 24.7191 9.38621C24.7191 11.1035 25.5411 12.6185 27.311 12.6185C29.081 12.6185 29.8609 11.2305 29.8609 9.53206C29.8609 8.33232 29.5714 7.39605 28.9783 6.81735C28.3198 6.19631 27.5819 6.17279 27.1289 6.21513C26.2229 6.27629 25.6905 6.58682 25.2562 7.27373ZM45.9216 9.40503C45.9216 12.1386 44.3571 15.145 40.1633 15.145C37.1417 15.145 34.3863 13.4042 34.3863 9.40503C34.3863 6.0928 36.4645 3.45808 40.5743 3.68862C44.9549 3.93797 45.9216 7.4384 45.9216 9.40503ZM38.1084 7.27373C37.7161 7.89477 37.5714 8.64284 37.5714 9.38621C37.5714 11.1035 38.3933 12.6185 40.1633 12.6185C41.9333 12.6185 42.7132 11.2305 42.7132 9.53206C42.7132 8.33232 42.4236 7.39605 41.8305 6.81735C41.172 6.19631 40.4342 6.17279 39.9812 6.21513C39.0751 6.27629 38.5428 6.58682 38.1084 7.27373ZM47.9578 0.207014H51.0634V7.72539L54.538 4.01796H58.3442L54.6408 7.87124L58.8159 14.8297H55.1545L52.3991 10.1672L51.0401 11.4516V14.8297H47.9531V0.207014H47.9578ZM60.4831 2.94054C60.4831 2.40419 60.5251 1.67493 60.9361 1.09623C61.3284 0.555174 62.2111 0 63.6915 0C64.3267 0 64.9665 0.103507 65.5829 0.188195V2.56886H64.8217C63.6261 2.56886 63.5654 2.81822 63.5888 4.26732H65.709V6.21513H63.6121V14.8344H60.4644V6.21513H58.7785V4.26732H60.4831V2.94054ZM67.2922 0.188195H70.4165V2.65355H67.2922V0.188195ZM67.2922 3.99914H70.4165V14.8344H67.2922V3.99914ZM83.2921 12.0774C82.9232 12.6373 82.5496 13.1736 81.9985 13.6959C81.0738 14.5663 79.6728 15.2297 77.9495 15.2297C74.7598 15.2297 72.5181 13.1783 72.5181 9.63557C72.5181 7.02437 73.793 3.6698 78.0289 3.6698C78.664 3.6698 80.5181 3.73096 81.8958 5.2224C83.2921 6.73267 83.3762 8.84986 83.4182 10.0684H75.7498C75.7265 11.414 76.4877 12.7596 78.197 12.7596C79.9063 12.7596 80.5227 11.621 80.9104 10.8541L83.2968 12.0774H83.2921ZM80.1444 8.07826C80.0837 7.62189 79.9997 7.01966 79.5467 6.54447C79.1544 6.14926 78.5613 5.94225 78.0055 5.94225C77.2443 5.94225 76.7119 6.31393 76.4037 6.64798C75.974 7.12317 75.8666 7.62189 75.7638 8.07826H80.1444ZM88.4153 0.207014V14.8344H85.2489V0.207014H88.4153ZM100.875 0.207014V14.8344H97.9984V13.8182C97.5034 14.3169 96.6814 15.1262 95.0983 15.1262C94.0288 15.1262 92.9173 14.7121 92.0767 13.8841C90.5122 12.3738 90.5122 10.1954 90.5122 9.48972C90.5122 5.4106 92.8146 3.73096 94.9768 3.73096C96.3966 3.73096 97.2372 4.39435 97.8163 4.82719V0.207014H100.88H100.875ZM97.8723 9.42385C97.8723 8.92514 97.8723 7.57954 97.1952 6.75149C97.0504 6.56329 96.5974 6.11162 95.9622 6.11162C93.7206 6.11162 93.7206 8.94866 93.7206 9.42856C93.7206 10.9388 94.1315 12.7831 95.7381 12.7831C96.0883 12.7831 96.4573 12.6608 96.7655 12.4538C97.877 11.6869 97.877 10.0308 97.877 9.42856L97.8723 9.42385Z" fill="#F2F1EF"/>
</svg>
