<svg width="124" height="19" viewBox="0 0 124 19" fill="none" xmlns="http://www.w3.org/2000/svg">
<path d="M0 0.254307H6.89594C8.76622 0.254307 10.4586 0.329443 11.543 0.687785C13.7402 1.39869 14.6237 3.15572 14.6237 4.86073C14.6237 5.82594 14.3713 6.41547 14.2967 6.58886C13.4878 8.42103 11.7724 8.77937 10.8086 8.98166C11.8929 9.16083 13.3329 9.38624 14.3197 10.5075C14.9508 11.1953 15.3065 12.1894 15.3065 13.2066C15.3065 14.6053 14.5721 16.5646 12.3519 17.5587C11.0151 18.1425 9.57514 18.2234 7.52701 18.2234H0V0.254307ZM4.24542 3.61231V7.35178H7.60733C8.61705 7.32866 10.2578 7.27664 10.2578 5.41558C10.2578 3.68745 8.76622 3.60653 7.90566 3.60653H4.24542V3.61231ZM4.24542 10.6115V14.9636H7.3549C8.84653 14.9405 10.7914 14.8885 10.7914 12.8252C10.7914 10.6636 9.02438 10.6347 8.11219 10.6115H4.24542ZM21.6287 6.31143C22.4892 5.57163 23.4244 4.98788 25.4438 4.78559V8.24763L24.153 8.44992C22.2827 8.77937 21.7262 9.06257 21.7262 10.7387V18.2234H17.8365V4.91275H21.6229V6.31143H21.6287ZM40.6241 11.5536C40.6241 14.9116 38.7022 18.6049 33.5503 18.6049C29.8384 18.6049 26.4536 16.4664 26.4536 11.5536C26.4536 7.48471 29.0065 4.24808 34.0551 4.53129C39.4365 4.83761 40.6241 9.13771 40.6241 11.5536ZM31.026 8.93542C30.5441 9.69834 30.3662 10.6173 30.3662 11.5305C30.3662 13.6401 31.3759 15.5012 33.5503 15.5012C35.7246 15.5012 36.6827 13.7961 36.6827 11.7097C36.6827 10.2359 36.327 9.08569 35.5984 8.37479C34.7895 7.61187 33.883 7.58297 33.3265 7.63499C32.2136 7.71012 31.5595 8.09158 31.026 8.93542ZM56.4124 11.5536C56.4124 14.9116 54.4905 18.6049 49.3387 18.6049C45.6268 18.6049 42.2419 16.4664 42.2419 11.5536C42.2419 7.48471 44.7949 4.24808 49.8435 4.53129C55.2249 4.83761 56.4124 9.13771 56.4124 11.5536ZM46.8143 8.93542C46.3324 9.69834 46.1546 10.6173 46.1546 11.5305C46.1546 13.6401 47.1643 15.5012 49.3387 15.5012C51.513 15.5012 52.4711 13.7961 52.4711 11.7097C52.4711 10.2359 52.1154 9.08569 51.3868 8.37479C50.5779 7.61187 49.6714 7.58297 49.1149 7.63499C48.0019 7.71012 47.3479 8.09158 46.8143 8.93542ZM58.9138 0.254307H62.7289V9.49027L66.9973 4.93587H71.673L67.1235 9.66944L72.2524 18.2176H67.7546L64.3697 12.4899L62.7002 14.0678V18.2176H58.9081V0.254307H58.9138ZM74.3006 3.61231C74.3006 2.95343 74.3522 2.05757 74.8571 1.34667C75.339 0.682005 76.4233 0 78.2419 0C79.0222 0 79.8081 0.127153 80.5654 0.231188V3.15572H79.6303C78.1616 3.15572 78.087 3.46204 78.1157 5.24219H80.7203V7.63499H78.1444V18.2234H74.2776V7.63499H72.2065V5.24219H74.3006V3.61231ZM82.6652 0.231188H86.5033V3.25975H82.6652V0.231188ZM82.6652 4.91275H86.5033V18.2234H82.6652V4.91275ZM102.32 14.8365C101.867 15.5243 101.408 16.1832 100.731 16.8247C99.5952 17.894 97.8741 18.7089 95.7571 18.7089C91.8387 18.7089 89.085 16.1889 89.085 11.8368C89.085 8.6291 90.6512 4.50817 95.8547 4.50817C96.6349 4.50817 98.9125 4.5833 100.605 6.41547C102.32 8.27075 102.424 10.8716 102.475 12.3686H93.055C93.0263 14.0216 93.9614 15.6746 96.0612 15.6746C98.161 15.6746 98.9183 14.2759 99.3944 13.3338L102.326 14.8365H102.32ZM98.4536 9.92375C98.379 9.36312 98.2757 8.62332 97.7192 8.03957C97.2373 7.55407 96.5087 7.29976 95.826 7.29976C94.8908 7.29976 94.2368 7.75636 93.8582 8.16672C93.3304 8.75047 93.1984 9.36312 93.0722 9.92375H98.4536ZM108.614 0.254307V18.2234H104.724V0.254307H108.614ZM123.92 0.254307V18.2234H120.386V16.975C119.778 17.5876 118.768 18.5817 116.824 18.5817C115.51 18.5817 114.144 18.0731 113.112 17.0559C111.19 15.2006 111.19 12.5246 111.19 11.6577C111.19 6.64666 114.018 4.5833 116.674 4.5833C118.419 4.5833 119.451 5.39824 120.163 5.92997V0.254307H123.926H123.92ZM120.231 11.5767C120.231 10.9641 120.231 9.3111 119.4 8.29387C119.222 8.06269 118.665 7.50783 117.885 7.50783C115.131 7.50783 115.131 10.993 115.131 11.5825C115.131 13.4378 115.636 15.7035 117.61 15.7035C118.04 15.7035 118.493 15.5532 118.872 15.2989C120.237 14.3568 120.237 12.3223 120.237 11.5825L120.231 11.5767Z" fill="#002540"/>
</svg>
