<svg width="110" height="17" viewBox="0 0 110 17" fill="none" xmlns="http://www.w3.org/2000/svg">
<path d="M0 0.22379H6.06843C7.71427 0.22379 9.20361 0.28991 10.1578 0.60525C12.0914 1.23085 12.8689 2.77703 12.8689 4.27744C12.8689 5.12683 12.6468 5.64561 12.5811 5.7982C11.8693 7.4105 10.3597 7.72584 9.51157 7.90386C10.4658 8.06153 11.733 8.25989 12.6013 9.2466C13.1567 9.85185 13.4697 10.7267 13.4697 11.6218C13.4697 12.8527 12.8235 14.5769 10.8696 15.4517C9.69333 15.9654 8.42612 16.0366 6.62377 16.0366H0V0.22379ZM3.73597 3.17884V6.46957H6.69445C7.58301 6.44922 9.02691 6.40345 9.02691 4.76571C9.02691 3.24496 7.71427 3.17375 6.95698 3.17375H3.73597V3.17884ZM3.73597 9.33815V13.168H6.47231C7.78495 13.1477 9.49643 13.1019 9.49643 11.2861C9.49643 9.38392 7.94146 9.35849 7.13873 9.33815H3.73597ZM19.0332 5.55406C19.7905 4.90304 20.6135 4.38934 22.3906 4.21132V7.25792L21.2546 7.43593C19.6088 7.72584 19.1191 7.97506 19.1191 9.45004V16.0366H15.6961V4.32322H19.0282V5.55406H19.0332ZM35.7492 10.1672C35.7492 13.1222 34.0579 16.3723 29.5243 16.3723C26.2578 16.3723 23.2791 14.4904 23.2791 10.1672C23.2791 6.58655 25.5258 3.73831 29.9685 3.98753C34.7041 4.2571 35.7492 8.04118 35.7492 10.1672ZM27.3029 7.86317C26.8788 8.53454 26.7223 9.34324 26.7223 10.1468C26.7223 12.0033 27.6108 13.641 29.5243 13.641C31.4377 13.641 32.2808 12.1406 32.2808 10.3045C32.2808 9.00755 31.9678 7.99541 31.3266 7.36981C30.6147 6.69844 29.8171 6.67301 29.3274 6.71879C28.3479 6.78491 27.7724 7.12059 27.3029 7.86317ZM49.6429 10.1672C49.6429 13.1222 47.9517 16.3723 43.418 16.3723C40.1516 16.3723 37.1729 14.4904 37.1729 10.1672C37.1729 6.58655 39.4195 3.73831 43.8623 3.98753C48.5979 4.2571 49.6429 8.04118 49.6429 10.1672ZM41.1966 7.86317C40.7725 8.53454 40.616 9.34324 40.616 10.1468C40.616 12.0033 41.5046 13.641 43.418 13.641C45.3314 13.641 46.1746 12.1406 46.1746 10.3045C46.1746 9.00755 45.8615 7.99541 45.2204 7.36981C44.5085 6.69844 43.7108 6.67301 43.2211 6.71879C42.2417 6.78491 41.6661 7.12059 41.1966 7.86317ZM51.8441 0.22379H55.2015V8.35144L58.9576 4.34356H63.0722L59.0687 8.50911L63.5821 16.0315H59.624L56.6454 10.9911L55.1762 12.3797V16.0315H51.8391V0.22379H51.8441ZM65.3845 3.17884C65.3845 2.59902 65.4299 1.81067 65.8742 1.18507C66.2983 0.600164 67.2525 0 68.8529 0C69.5395 0 70.2312 0.111895 70.8976 0.203446V2.77703H70.0747C68.7822 2.77703 68.7166 3.0466 68.7418 4.61313H71.0339V6.71879H68.7671V16.0366H65.3643V6.71879H63.5418V4.61313H65.3845V3.17884ZM72.7454 0.203446H76.1229V2.86858H72.7454V0.203446ZM72.7454 4.32322H76.1229V16.0366H72.7454V4.32322ZM90.0419 13.0561C89.6431 13.6614 89.2392 14.2412 88.6434 14.8057C87.6438 15.7467 86.1292 16.4638 84.2663 16.4638C80.8181 16.4638 78.3948 14.2463 78.3948 10.4164C78.3948 7.5936 79.773 3.96719 84.3521 3.96719C85.0387 3.96719 87.043 4.03331 88.5324 5.64561C90.0419 7.27826 90.1328 9.56703 90.1782 10.8843H81.8884C81.8632 12.339 82.6861 13.7936 84.5339 13.7936C86.3817 13.7936 87.0481 12.5628 87.4671 11.7337L90.0469 13.0561H90.0419ZM86.6391 8.7329C86.5735 8.23954 86.4826 7.58852 85.9929 7.07482C85.5688 6.64758 84.9277 6.42379 84.3269 6.42379C83.504 6.42379 82.9284 6.8256 82.5952 7.18671C82.1307 7.70041 82.0146 8.23954 81.9035 8.7329H86.6391ZM95.5802 0.22379V16.0366H92.1573V0.22379H95.5802ZM109.05 0.22379V16.0366H105.94V14.938C105.405 15.4771 104.516 16.3519 102.805 16.3519C101.649 16.3519 100.447 15.9044 99.5383 15.0092C97.847 13.3765 97.847 11.0217 97.847 10.2587C97.847 5.84906 100.336 4.03331 102.674 4.03331C104.208 4.03331 105.117 4.75045 105.743 5.21838V0.22379H109.055H109.05ZM105.804 10.1875C105.804 9.6484 105.804 8.19377 105.072 7.29861C104.915 7.09516 104.425 6.60689 103.739 6.60689C101.315 6.60689 101.315 9.67383 101.315 10.1926C101.315 11.8253 101.76 13.819 103.496 13.819C103.875 13.819 104.274 13.6868 104.607 13.463C105.809 12.634 105.809 10.8436 105.809 10.1926L105.804 10.1875Z" fill="#002540"/>
</svg>
