<svg width="133" height="21" viewBox="0 0 133 21" fill="none" xmlns="http://www.w3.org/2000/svg">
<path d="M0 0.272432H7.38743C9.39101 0.272432 11.2041 0.352923 12.3656 0.736805C14.7195 1.49838 15.666 3.38063 15.666 5.20717C15.666 6.24117 15.3956 6.87272 15.3157 7.05846C14.4491 9.02121 12.6115 9.4051 11.579 9.6218C12.7405 9.81374 14.2832 10.0552 15.3403 11.2564C16.0163 11.9932 16.3974 13.0582 16.3974 14.1479C16.3974 15.6463 15.6107 17.7452 13.2322 18.8102C11.8002 19.4355 10.2576 19.5222 8.06348 19.5222H0V0.272432ZM4.548 3.86977V7.87576H8.14952C9.23121 7.85099 10.989 7.79527 10.989 5.80156C10.989 3.95026 9.39101 3.86358 8.46911 3.86358H4.548V3.86977ZM4.548 11.3678V16.0301H7.8791C9.47705 16.0054 11.5605 15.9497 11.5605 13.7392C11.5605 11.4236 9.66757 11.3926 8.69037 11.3678H4.548ZM23.1702 6.76127C24.0921 5.96874 25.0939 5.34338 27.2573 5.12667V8.83546L25.8744 9.05217C23.8709 9.40509 23.2747 9.70848 23.2747 11.5041V19.5222H19.1077V5.26289H23.1641V6.76127H23.1702ZM43.5194 12.3771C43.5194 15.9744 41.4606 19.9309 35.9415 19.9309C31.9651 19.9309 28.339 17.64 28.339 12.3771C28.339 8.01817 31.0739 4.55085 36.4823 4.85424C42.2472 5.1824 43.5194 9.78898 43.5194 12.3771ZM33.2373 9.57227C32.721 10.3896 32.5305 11.374 32.5305 12.3523C32.5305 14.6123 33.6122 16.606 35.9415 16.606C38.2708 16.606 39.2972 14.7794 39.2972 12.5443C39.2972 10.9654 38.9161 9.73325 38.1356 8.97168C37.269 8.15438 36.298 8.12343 35.7018 8.17915C34.5095 8.25964 33.8089 8.66829 33.2373 9.57227ZM60.4331 12.3771C60.4331 15.9744 58.3742 19.9309 52.8551 19.9309C48.8787 19.9309 45.2526 17.64 45.2526 12.3771C45.2526 8.01817 47.9875 4.55085 53.396 4.85424C59.1609 5.1824 60.4331 9.78898 60.4331 12.3771ZM50.1509 9.57227C49.6347 10.3896 49.4441 11.374 49.4441 12.3523C49.4441 14.6123 50.5258 16.606 52.8551 16.606C55.1845 16.606 56.2108 14.7794 56.2108 12.5443C56.2108 10.9654 55.8298 9.73325 55.0492 8.97168C54.1827 8.15438 53.2116 8.12343 52.6154 8.17915C51.4231 8.25964 50.7225 8.66829 50.1509 9.57227ZM63.1127 0.272432H67.1998V10.1667L71.7724 5.28766H76.7813L71.9076 10.3586L77.4021 19.516H72.5836L68.9575 13.3801L67.1691 15.0704V19.516H63.1066V0.272432H63.1127ZM79.5961 3.86977C79.5961 3.16393 79.6515 2.20422 80.1923 1.44265C80.7086 0.730613 81.8702 0 83.8184 0C84.6543 0 85.4963 0.136216 86.3075 0.247665V3.38063H85.3057C83.7324 3.38063 83.6525 3.70879 83.6832 5.61581H86.4735V8.17915H83.7139V19.5222H79.5716V8.17915H77.3529V5.61581H79.5961V3.86977ZM88.5569 0.247665H92.6686V3.49208H88.5569V0.247665ZM88.5569 5.26289H92.6686V19.5222H88.5569V5.26289ZM109.613 15.8939C109.127 16.6307 108.636 17.3366 107.911 18.0239C106.694 19.1693 104.85 20.0423 102.582 20.0423C98.3843 20.0423 95.4343 17.3428 95.4343 12.6805C95.4343 9.24411 97.1121 4.82948 102.686 4.82948C103.522 4.82948 105.962 4.90997 107.775 6.87272C109.613 8.86023 109.724 11.6465 109.779 13.2501H99.6872C99.6565 15.0209 100.658 16.7917 102.908 16.7917C105.157 16.7917 105.968 15.2933 106.479 14.2841L109.619 15.8939H109.613ZM105.471 10.631C105.391 10.0304 105.28 9.23792 104.684 8.61257C104.168 8.09247 103.387 7.82004 102.656 7.82004C101.654 7.82004 100.953 8.30918 100.548 8.74878C99.9823 9.37414 99.8409 10.0304 99.7057 10.631H105.471ZM116.355 0.272432V19.5222H112.188V0.272432H116.355ZM132.752 0.272432V19.5222H128.967V18.1848C128.315 18.8411 127.233 19.9061 125.15 19.9061C123.742 19.9061 122.28 19.3612 121.173 18.2715C119.115 16.284 119.115 13.4173 119.115 12.4885C119.115 7.12038 122.145 4.90997 124.99 4.90997C126.858 4.90997 127.965 5.78299 128.727 6.35262V0.272432H132.759H132.752ZM128.801 12.4018C128.801 11.7455 128.801 9.97473 127.909 8.885C127.719 8.63733 127.123 8.04293 126.287 8.04293C123.337 8.04293 123.337 11.7765 123.337 12.408C123.337 14.3956 123.878 16.8227 125.992 16.8227C126.453 16.8227 126.938 16.6617 127.344 16.3893C128.807 15.38 128.807 13.2006 128.807 12.408L128.801 12.4018Z" fill="#F2F1EF"/>
</svg>
