<svg width="90" height="14" viewBox="0 0 90 14" fill="none" xmlns="http://www.w3.org/2000/svg">
<path d="M0 0.182983H5.00453C6.36183 0.182983 7.59006 0.237046 8.37697 0.494886C9.97159 1.00641 10.6128 2.27065 10.6128 3.49747C10.6128 4.19197 10.4296 4.61616 10.3754 4.74092C9.78839 6.05923 8.54351 6.31707 7.84404 6.46263C8.63094 6.59155 9.67598 6.75374 10.3921 7.56053C10.8501 8.05541 11.1082 8.77071 11.1082 9.50264C11.1082 10.509 10.5753 11.9188 8.96402 12.6341C7.99392 13.0542 6.94888 13.1124 5.46251 13.1124H0V0.182983ZM3.08099 2.59919V5.28987H5.5208C6.25358 5.27324 7.44434 5.23581 7.44434 3.89671C7.44434 2.65325 6.36183 2.59503 5.73731 2.59503H3.08099V2.59919ZM3.08099 7.63538V10.7669H5.33761C6.42012 10.7503 7.83155 10.7128 7.83155 9.22817C7.83155 7.67281 6.54919 7.65202 5.88719 7.63538H3.08099ZM15.6964 4.54131C16.3209 4.00899 16.9996 3.58896 18.4651 3.44341V5.93447L17.5283 6.08003C16.171 6.31707 15.7672 6.52085 15.7672 7.72687V13.1124H12.9443V3.5349H15.6922V4.54131H15.6964ZM29.4818 8.31325C29.4818 10.7295 28.087 13.3869 24.3482 13.3869C21.6544 13.3869 19.1979 11.8482 19.1979 8.31325C19.1979 5.38552 21.0507 3.05665 24.7145 3.26042C28.6199 3.48084 29.4818 6.57491 29.4818 8.31325ZM22.5162 6.42936C22.1665 6.97831 22.0374 7.63954 22.0374 8.29662C22.0374 9.81454 22.7702 11.1536 24.3482 11.1536C25.9261 11.1536 26.6214 9.92683 26.6214 8.42554C26.6214 7.36507 26.3633 6.53748 25.8345 6.02596C25.2475 5.47701 24.5896 5.45622 24.1858 5.49365C23.3781 5.54771 22.9034 5.82219 22.5162 6.42936ZM40.9397 8.31325C40.9397 10.7295 39.5449 13.3869 35.8061 13.3869C33.1123 13.3869 30.6559 11.8482 30.6559 8.31325C30.6559 5.38552 32.5086 3.05665 36.1725 3.26042C40.0779 3.48084 40.9397 6.57491 40.9397 8.31325ZM33.9742 6.42936C33.6244 6.97831 33.4954 7.63954 33.4954 8.29662C33.4954 9.81454 34.2281 11.1536 35.8061 11.1536C37.3841 11.1536 38.0794 9.92683 38.0794 8.42554C38.0794 7.36507 37.8213 6.53748 37.2925 6.02596C36.7054 5.47701 36.0476 5.45622 35.6437 5.49365C34.836 5.54771 34.3614 5.82219 33.9742 6.42936ZM42.755 0.182983H45.5237V6.82859L48.6214 3.55153H52.0146L48.713 6.95751L52.4351 13.1082H49.171L46.7145 8.98696L45.5029 10.1223V13.1082H42.7508V0.182983H42.755ZM53.9215 2.59919C53.9215 2.1251 53.959 1.4805 54.3254 0.968978C54.6751 0.490727 55.462 0 56.7818 0C57.3481 0 57.9185 0.0914915 58.4681 0.166348V2.27065H57.7894C56.7235 2.27065 56.6694 2.49106 56.6902 3.77195H58.5805V5.49365H56.7111V13.1124H53.9049V5.49365H52.4018V3.77195H53.9215V2.59919ZM59.9919 0.166348H62.7773V2.34551H59.9919V0.166348ZM59.9919 3.5349H62.7773V13.1124H59.9919V3.5349ZM74.2561 10.6754C73.9271 11.1703 73.5941 11.6444 73.1028 12.106C72.2784 12.8754 71.0293 13.4617 69.493 13.4617C66.6493 13.4617 64.6509 11.6485 64.6509 8.51703C64.6509 6.20895 65.7875 3.24379 69.5638 3.24379C70.13 3.24379 71.7829 3.29785 73.0112 4.61616C74.2561 5.95111 74.331 7.82252 74.3685 8.89963H67.532C67.5112 10.089 68.1898 11.2784 69.7137 11.2784C71.2375 11.2784 71.7871 10.272 72.1327 9.59413L74.2602 10.6754H74.2561ZM71.4499 7.1405C71.3957 6.7371 71.3208 6.20479 70.9169 5.78476C70.5672 5.43543 70.0384 5.25244 69.543 5.25244C68.8643 5.25244 68.3897 5.58098 68.1149 5.87625C67.7318 6.29628 67.6361 6.7371 67.5445 7.1405H71.4499ZM78.8234 0.182983V13.1124H76.0006V0.182983H78.8234ZM89.9316 0.182983V13.1124H87.3669V12.2141C86.9256 12.6549 86.1928 13.3702 84.7814 13.3702C83.8279 13.3702 82.837 13.0043 82.0876 12.2723C80.6928 10.9374 80.6928 9.01191 80.6928 8.38811C80.6928 4.78251 82.7454 3.29785 84.6731 3.29785C85.9388 3.29785 86.6883 3.88423 87.2045 4.26683V0.182983H89.9358H89.9316ZM87.2545 8.32989C87.2545 7.88906 87.2545 6.69967 86.6508 5.96774C86.5217 5.80139 86.1179 5.40216 85.5516 5.40216C83.5532 5.40216 83.5532 7.90986 83.5532 8.33405C83.5532 9.66899 83.9195 11.2992 85.3518 11.2992C85.664 11.2992 85.993 11.1911 86.2678 11.0081C87.2587 10.3302 87.2587 8.86636 87.2587 8.33405L87.2545 8.32989Z" fill="#002540"/>
</svg>
