<svg width="139" height="21" viewBox="0 0 139 21" fill="none" xmlns="http://www.w3.org/2000/svg">
<path d="M0 0.280946H7.68379C9.76775 0.280946 11.6535 0.363953 12.8617 0.759832C15.3101 1.5452 16.2945 3.48629 16.2945 5.3699C16.2945 6.43622 16.0132 7.08751 15.9301 7.27906C15.0288 9.30315 13.1174 9.69903 12.0435 9.92251C13.2517 10.1204 14.8562 10.3695 15.9557 11.6082C16.6589 12.368 17.0552 13.4663 17.0552 14.59C17.0552 16.1353 16.237 18.2998 13.7631 19.3981C12.2736 20.043 10.6691 20.1323 8.38697 20.1323H0V0.280946ZM4.73045 3.99071V8.1219H8.47646C9.60154 8.09636 11.4298 8.03889 11.4298 5.98288C11.4298 4.07372 9.76775 3.98433 8.80887 3.98433H4.73045V3.99071ZM4.73045 11.7231V16.5311H8.19519C9.85724 16.5056 12.0243 16.4481 12.0243 14.1686C12.0243 11.7806 10.0554 11.7487 9.039 11.7231H4.73045ZM24.0997 6.97257C25.0586 6.15528 26.1006 5.51038 28.3508 5.2869V9.1116L26.9124 9.33508C24.8285 9.69903 24.2084 10.0119 24.2084 11.8636V20.1323H19.8743V5.42737H24.0934V6.97257H24.0997ZM45.2653 12.7639C45.2653 16.4737 43.1238 20.5538 37.3834 20.5538C33.2474 20.5538 29.4758 18.1913 29.4758 12.7639C29.4758 8.26876 32.3205 4.69308 37.9459 5.00595C43.9421 5.34436 45.2653 10.0949 45.2653 12.7639ZM34.5707 9.87143C34.0337 10.7143 33.8355 11.7295 33.8355 12.7384C33.8355 15.0689 34.9606 17.1249 37.3834 17.1249C39.8061 17.1249 40.8737 15.2413 40.8737 12.9363C40.8737 11.3081 40.4773 10.0374 39.6655 9.25207C38.7642 8.40923 37.7541 8.3773 37.1341 8.43477C35.8939 8.51778 35.1652 8.9392 34.5707 9.87143ZM62.8575 12.7639C62.8575 16.4737 60.716 20.5538 54.9755 20.5538C50.8396 20.5538 47.068 18.1913 47.068 12.7639C47.068 8.26876 49.9127 4.69308 55.5381 5.00595C61.5343 5.34436 62.8575 10.0949 62.8575 12.7639ZM52.1628 9.87143C51.6259 10.7143 51.4277 11.7295 51.4277 12.7384C51.4277 15.0689 52.5528 17.1249 54.9755 17.1249C57.3983 17.1249 58.4659 15.2413 58.4659 12.9363C58.4659 11.3081 58.0695 10.0374 57.2577 9.25207C56.3563 8.40923 55.3463 8.3773 54.7262 8.43477C53.4861 8.51778 52.7573 8.9392 52.1628 9.87143ZM65.6446 0.280946H69.8957V10.4844L74.6517 5.45291H79.8616L74.7923 10.6823L80.5072 20.126H75.4955L71.7239 13.7983L69.8637 15.5414V20.126H65.6382V0.280946H65.6446ZM82.7893 3.99071C82.7893 3.26281 82.8469 2.27311 83.4094 1.48774C83.9464 0.753447 85.1546 0 87.181 0C88.0504 0 88.9261 0.140473 89.7699 0.255406V3.48629H88.728C87.0915 3.48629 87.0084 3.8247 87.0404 5.79132H89.9425V8.43477H87.0723V20.1323H82.7638V8.43477H80.4561V5.79132H82.7893V3.99071ZM92.1096 0.255406H96.3862V3.60122H92.1096V0.255406ZM92.1096 5.42737H96.3862V20.1323H92.1096V5.42737ZM114.01 16.3907C113.505 17.1505 112.994 17.8784 112.24 18.5871C110.974 19.7684 109.056 20.6687 106.697 20.6687C102.331 20.6687 99.2628 17.8848 99.2628 13.0768C99.2628 9.53301 101.008 4.98041 106.806 4.98041C107.675 4.98041 110.213 5.06342 112.099 7.08751C114.01 9.13714 114.125 12.0104 114.183 13.6642H103.686C103.654 15.4904 104.696 17.3165 107.036 17.3165C109.376 17.3165 110.22 15.7713 110.75 14.7305L114.017 16.3907H114.01ZM109.702 10.9633C109.619 10.3439 109.504 9.52663 108.884 8.88173C108.347 8.34538 107.535 8.06443 106.774 8.06443C105.732 8.06443 105.003 8.56886 104.581 9.0222C103.993 9.6671 103.846 10.3439 103.706 10.9633H109.702ZM121.023 0.280946V20.1323H116.689V0.280946H121.023ZM138.078 0.280946V20.1323H134.14V18.7532C133.463 19.43 132.338 20.5282 130.171 20.5282C128.707 20.5282 127.185 19.9663 126.035 18.8426C123.893 16.7929 123.893 13.8366 123.893 12.8788C123.893 7.34291 127.045 5.06342 130.004 5.06342C131.948 5.06342 133.098 5.96372 133.891 6.55115V0.280946H138.085H138.078ZM133.968 12.7894C133.968 12.1126 133.968 10.2865 133.041 9.16268C132.843 8.90727 132.223 8.2943 131.353 8.2943C128.285 8.2943 128.285 12.1445 128.285 12.7958C128.285 14.8455 128.847 17.3484 131.046 17.3484C131.526 17.3484 132.031 17.1824 132.453 16.9015C133.974 15.8607 133.974 13.6131 133.974 12.7958L133.968 12.7894Z" fill="#F2F1EF"/>
</svg>
