<svg width="66" height="10" viewBox="0 0 66 10" fill="none" xmlns="http://www.w3.org/2000/svg">
<path d="M0 0.133693H3.62529C4.60853 0.133693 5.49826 0.173193 6.06829 0.361578C7.22344 0.73531 7.68791 1.65901 7.68791 2.55535C7.68791 3.06278 7.55521 3.3727 7.516 3.46386C7.09073 4.42705 6.18894 4.61544 5.68224 4.72179C6.25227 4.81598 7.0093 4.93448 7.52806 5.52394C7.85983 5.88552 8.04682 6.40814 8.04682 6.94291C8.04682 7.67822 7.66077 8.70826 6.49356 9.23088C5.79082 9.53776 5.03379 9.5803 3.95706 9.5803H0V0.133693ZM2.23188 1.89904V3.86494H3.99928C4.53011 3.85278 5.3927 3.82544 5.3927 2.84705C5.3927 1.93855 4.60852 1.89601 4.15612 1.89601H2.23188V1.89904ZM2.23188 5.57863V7.8666H3.86658C4.65075 7.85445 5.67319 7.8271 5.67319 6.74237C5.67319 5.60598 4.74425 5.59079 4.2647 5.57863H2.23188ZM11.3705 3.31801C11.8229 2.92909 12.3145 2.6222 13.3762 2.51585V4.3359L12.6976 4.44225C11.7143 4.61544 11.4218 4.76432 11.4218 5.64548V9.5803H9.3769V2.5827H11.3675V3.31801H11.3705ZM21.3567 6.07391C21.3567 7.83926 20.3463 9.78084 17.6379 9.78084C15.6865 9.78084 13.907 8.65661 13.907 6.07391C13.907 3.93482 15.2492 2.23328 17.9033 2.38216C20.7323 2.5432 21.3567 4.80382 21.3567 6.07391ZM16.3108 4.69748C16.0575 5.09856 15.964 5.58167 15.964 6.06175C15.964 7.17079 16.4948 8.14918 17.6379 8.14918C18.7809 8.14918 19.2846 7.25283 19.2846 6.15594C19.2846 5.38113 19.0976 4.77648 18.7146 4.40275C18.2893 4.00167 17.8128 3.98648 17.5202 4.01382C16.9351 4.05332 16.5913 4.25386 16.3108 4.69748ZM29.6568 6.07391C29.6568 7.83926 28.6464 9.78084 25.938 9.78084C23.9866 9.78084 22.2072 8.65661 22.2072 6.07391C22.2072 3.93482 23.5493 2.23328 26.2034 2.38216C29.0325 2.5432 29.6568 4.80382 29.6568 6.07391ZM24.611 4.69748C24.3576 5.09856 24.2641 5.58167 24.2641 6.06175C24.2641 7.17079 24.795 8.14918 25.938 8.14918C27.0811 8.14918 27.5848 7.25283 27.5848 6.15594C27.5848 5.38113 27.3978 4.77648 27.0148 4.40275C26.5895 4.00167 26.113 3.98648 25.8204 4.01382C25.2353 4.05332 24.8915 4.25386 24.611 4.69748ZM30.9718 0.133693H32.9775V4.98917L35.2214 2.59486H37.6795L35.2878 5.08336L37.9841 9.57726H35.6196L33.8401 6.56614L32.9624 7.39564V9.57726H30.9688V0.133693H30.9718ZM39.0609 1.89904C39.0609 1.55266 39.088 1.0817 39.3534 0.707964C39.6068 0.35854 40.1768 0 41.1329 0C41.5431 0 41.9563 0.0668464 42.3544 0.121539V1.65901H41.8628C41.0907 1.65901 41.0515 1.82004 41.0665 2.75589H42.4358V4.01382H41.0816V9.5803H39.0488V4.01382H37.96V2.75589H39.0609V1.89904ZM43.4583 0.121539H45.476V1.7137H43.4583V0.121539ZM43.4583 2.5827H45.476V9.5803H43.4583V2.5827ZM53.7913 7.79976C53.553 8.16134 53.3117 8.50772 52.9558 8.84499C52.3586 9.40711 51.4538 9.83553 50.3409 9.83553C48.2809 9.83553 46.8332 8.51076 46.8332 6.22279C46.8332 4.53644 47.6566 2.37001 50.3922 2.37001C50.8024 2.37001 51.9997 2.40951 52.8895 3.3727C53.7913 4.34805 53.8455 5.71537 53.8727 6.50233H48.9203C48.9053 7.37133 49.3969 8.24034 50.5008 8.24034C51.6046 8.24034 52.0027 7.50503 52.2531 7.00975L53.7943 7.79976H53.7913ZM51.7584 5.21706C51.7192 4.92232 51.6649 4.5334 51.3724 4.22651C51.119 3.97128 50.736 3.83759 50.3771 3.83759C49.8855 3.83759 49.5416 4.07763 49.3426 4.29336C49.0651 4.60025 48.9957 4.92232 48.9294 5.21706H51.7584ZM57.0999 0.133693V9.5803H55.055V0.133693H57.0999ZM65.1467 0.133693V9.5803H63.2888V8.92399C62.9691 9.24607 62.4383 9.76869 61.4158 9.76869C60.7252 9.76869 60.0073 9.5013 59.4645 8.96653C58.4541 7.99118 58.4541 6.58437 58.4541 6.1286C58.4541 3.49424 59.941 2.40951 61.3374 2.40951C62.2543 2.40951 62.7972 2.83793 63.1712 3.11747V0.133693H65.1497H65.1467ZM63.2074 6.08606C63.2074 5.76398 63.2074 4.89498 62.77 4.36021C62.6765 4.23867 62.384 3.94697 61.9738 3.94697C60.5261 3.94697 60.5261 5.77917 60.5261 6.0891C60.5261 7.06445 60.7915 8.25553 61.829 8.25553C62.0552 8.25553 62.2935 8.17653 62.4926 8.04284C63.2104 7.54756 63.2104 6.47802 63.2104 6.0891L63.2074 6.08606Z" fill="#002540"/>
</svg>
