<svg width="101" height="16" viewBox="0 0 101 16" fill="none" xmlns="http://www.w3.org/2000/svg">
<path d="M0 0.206122H5.58933C7.10524 0.206122 8.477 0.267022 9.35585 0.557467C11.1368 1.13367 11.8529 2.55779 11.8529 3.93974C11.8529 4.72207 11.6483 5.1999 11.5879 5.34044C10.9322 6.82546 9.54185 7.1159 8.76065 7.27986C9.63951 7.42508 10.8067 7.60778 11.6065 8.51659C12.118 9.07406 12.4063 9.87981 12.4063 10.7043C12.4063 11.838 11.8111 13.4261 10.0115 14.2318C8.92805 14.7049 7.76089 14.7705 6.10084 14.7705H0V0.206122ZM3.44102 2.92787V5.95881H6.16594C6.98434 5.94007 8.31425 5.89791 8.31425 4.38947C8.31425 2.98877 7.10524 2.92319 6.40774 2.92319H3.44102V2.92787ZM3.44102 8.60092V12.1284H5.96133C7.17034 12.1097 8.7467 12.0675 8.7467 10.3951C8.7467 8.64308 7.31449 8.61966 6.57514 8.60092H3.44102ZM17.5306 5.11558C18.2281 4.51595 18.9861 4.04281 20.6229 3.87884V6.68492L19.5766 6.84888C18.0607 7.1159 17.6097 7.34545 17.6097 8.70398V14.7705H14.4569V3.98191H17.526V5.11558H17.5306ZM32.9268 9.36451C32.9268 12.0863 31.3691 15.0797 27.1934 15.0797C24.1848 15.0797 21.4413 13.3464 21.4413 9.36451C21.4413 6.06655 23.5105 3.44318 27.6026 3.67272C31.9643 3.92101 32.9268 7.40635 32.9268 9.36451ZM25.1473 7.24238C24.7567 7.86075 24.6126 8.6056 24.6126 9.34577C24.6126 11.0556 25.431 12.5641 27.1934 12.5641C28.9557 12.5641 29.7323 11.1821 29.7323 9.49099C29.7323 8.29642 29.444 7.36418 28.8534 6.78798C28.1978 6.16961 27.4631 6.14619 27.012 6.18835C26.1099 6.24925 25.5798 6.55843 25.1473 7.24238ZM45.7237 9.36451C45.7237 12.0863 44.166 15.0797 39.9902 15.0797C36.9817 15.0797 34.2381 13.3464 34.2381 9.36451C34.2381 6.06655 36.3074 3.44318 40.3994 3.67272C44.7612 3.92101 45.7237 7.40635 45.7237 9.36451ZM37.9442 7.24238C37.5536 7.86075 37.4095 8.6056 37.4095 9.34577C37.4095 11.0556 38.2279 12.5641 39.9902 12.5641C41.7526 12.5641 42.5291 11.1821 42.5291 9.49099C42.5291 8.29642 42.2408 7.36418 41.6503 6.78798C40.9946 6.16961 40.2599 6.14619 39.8089 6.18835C38.9068 6.24925 38.3767 6.55843 37.9442 7.24238ZM47.7511 0.206122H50.8434V7.69211L54.303 4.00064H58.0928L54.4053 7.83733L58.5624 14.7658H54.9168L52.1733 10.1234L50.8201 11.4023V14.7658H47.7465V0.206122H47.7511ZM60.2225 2.92787C60.2225 2.39383 60.2643 1.66772 60.6735 1.09151C61.0642 0.552782 61.943 0 63.4171 0C64.0495 0 64.6865 0.103061 65.3003 0.187384V2.55779H64.5424C63.352 2.55779 63.2915 2.80607 63.3148 4.24893H65.4259V6.18835H63.338V14.7705H60.2039V6.18835H58.5252V4.24893H60.2225V2.92787ZM67.0022 0.187384H70.1131V2.64211H67.0022V0.187384ZM67.0022 3.98191H70.1131V14.7705H67.0022V3.98191ZM82.9332 12.0254C82.5659 12.5828 82.1939 13.1169 81.6452 13.6369C80.7245 14.5035 79.3295 15.164 77.6136 15.164C74.4376 15.164 72.2056 13.1216 72.2056 9.59405C72.2056 6.9941 73.4751 3.65398 77.6926 3.65398C78.3251 3.65398 80.1711 3.71488 81.5429 5.1999C82.9332 6.70366 83.0169 8.81172 83.0588 10.025H75.4234C75.4002 11.3648 76.1581 12.7046 77.8601 12.7046C79.562 12.7046 80.1758 11.571 80.5617 10.8074L82.9379 12.0254H82.9332ZM79.7991 8.04345C79.7387 7.58904 79.655 6.98942 79.2039 6.51627C78.8133 6.12277 78.2227 5.91664 77.6694 5.91664C76.9114 5.91664 76.3813 6.28673 76.0744 6.61933C75.6466 7.09248 75.5397 7.58904 75.4374 8.04345H79.7991ZM88.0343 0.206122V14.7705H84.8816V0.206122H88.0343ZM100.441 0.206122V14.7705H97.5762V13.7587C97.0833 14.2552 96.2649 15.061 94.6885 15.061C93.6236 15.061 92.5169 14.6487 91.6799 13.8242C90.1222 12.3205 90.1222 10.1515 90.1222 9.44883C90.1222 5.38728 92.4146 3.71488 94.5676 3.71488C95.9812 3.71488 96.8182 4.37541 97.3948 4.8064V0.206122H100.445H100.441ZM97.4506 9.38325C97.4506 8.88668 97.4506 7.54688 96.7764 6.72239C96.6322 6.53501 96.1812 6.08529 95.5488 6.08529C93.3167 6.08529 93.3167 8.9101 93.3167 9.38793C93.3167 10.8917 93.7259 12.728 95.3256 12.728C95.6743 12.728 96.0417 12.6062 96.3486 12.4001C97.4553 11.6365 97.4553 9.98756 97.4553 9.38793L97.4506 9.38325Z" fill="#F2F1EF"/>
</svg>
