<svg width="105" height="16" viewBox="0 0 105 16" fill="none" xmlns="http://www.w3.org/2000/svg">
<path d="M0 0.213132H5.82908C7.41002 0.213132 8.84061 0.276102 9.75717 0.576424C11.6145 1.17222 12.3613 2.64477 12.3613 4.07372C12.3613 4.88265 12.148 5.37673 12.0849 5.52205C11.4011 7.05756 9.95115 7.35788 9.13643 7.52742C10.053 7.67758 11.2702 7.86649 12.1043 8.80621C12.6378 9.38263 12.9384 10.2158 12.9384 11.0683C12.9384 12.2405 12.3177 13.8826 10.4409 14.7158C9.31101 15.205 8.09379 15.2728 6.36253 15.2728H0V0.213132ZM3.58862 3.02744V6.16144H6.43042C7.28393 6.14206 8.67088 6.09847 8.67088 4.53873C8.67088 3.09041 7.41002 3.02259 6.68259 3.02259H3.58862V3.02744ZM3.58862 8.8934V12.5409H6.21704C7.47791 12.5215 9.12188 12.4779 9.12188 10.7486C9.12188 8.93699 7.62824 8.91278 6.85717 8.8934H3.58862ZM18.2826 5.28954C19.01 4.66952 19.8005 4.18028 21.5075 4.01075V6.91224L20.4163 7.08178C18.8354 7.35788 18.365 7.59523 18.365 8.99996V15.2728H15.0771V4.11731H18.2777V5.28954H18.2826ZM34.3392 9.68295C34.3392 12.4973 32.7146 15.5925 28.3598 15.5925C25.2222 15.5925 22.361 13.8003 22.361 9.68295C22.361 6.27285 24.519 3.56027 28.7866 3.79762C33.3354 4.05434 34.3392 7.6582 34.3392 9.68295ZM26.226 7.48867C25.8187 8.12806 25.6683 8.89824 25.6683 9.66358C25.6683 11.4316 26.5218 12.9913 28.3598 12.9913C30.1978 12.9913 31.0076 11.5624 31.0076 9.81374C31.0076 8.57855 30.7069 7.61461 30.0911 7.01881C29.4073 6.37942 28.6411 6.3552 28.1707 6.39879C27.2299 6.46176 26.677 6.78146 26.226 7.48867ZM47.685 9.68295C47.685 12.4973 46.0604 15.5925 41.7056 15.5925C38.568 15.5925 35.7068 13.8003 35.7068 9.68295C35.7068 6.27285 37.8648 3.56027 42.1323 3.79762C46.6812 4.05434 47.685 7.6582 47.685 9.68295ZM39.5718 7.48867C39.1645 8.12806 39.0141 8.89824 39.0141 9.66358C39.0141 11.4316 39.8676 12.9913 41.7056 12.9913C43.5435 12.9913 44.3534 11.5624 44.3534 9.81374C44.3534 8.57855 44.0527 7.61461 43.4368 7.01881C42.7531 6.37942 41.9869 6.3552 41.5165 6.39879C40.5757 6.46176 40.0228 6.78146 39.5718 7.48867ZM49.7994 0.213132H53.0243V7.95368L56.6323 4.13669H60.5846L56.739 8.10384L61.0744 15.268H57.2724L54.4112 10.4677L53 11.7901V15.268H49.7945V0.213132H49.7994ZM62.8057 3.02744C62.8057 2.47523 62.8493 1.72443 63.2761 1.12863C63.6835 0.57158 64.6 0 66.1373 0C66.7968 0 67.4612 0.106566 68.1013 0.193756V2.64477H67.3109C66.0694 2.64477 66.0064 2.9015 66.0306 4.39342H68.2323V6.39879H66.0549V15.2728H62.7863V6.39879H61.0356V4.39342H62.8057V3.02744ZM69.8762 0.193756H73.1206V2.73196H69.8762V0.193756ZM69.8762 4.11731H73.1206V15.2728H69.8762V4.11731ZM86.4906 12.4343C86.1075 13.0107 85.7195 13.5629 85.1473 14.1006C84.1871 14.9967 82.7322 15.6797 80.9428 15.6797C77.6306 15.6797 75.3028 13.5678 75.3028 9.92031C75.3028 7.23194 76.6267 3.77824 81.0252 3.77824C81.6847 3.77824 83.61 3.84121 85.0406 5.37673C86.4906 6.93162 86.5779 9.11137 86.6215 10.3659H78.6587C78.6344 11.7513 79.4249 13.1367 81.1998 13.1367C82.9747 13.1367 83.6148 11.9644 84.0173 11.1749L86.4954 12.4343H86.4906ZM83.222 8.31698C83.159 7.84712 83.0717 7.2271 82.6013 6.73786C82.1939 6.33098 81.5781 6.11785 81.001 6.11785C80.2105 6.11785 79.6577 6.50051 79.3376 6.84443C78.8914 7.33366 78.7799 7.84712 78.6732 8.31698H83.222ZM91.8105 0.213132V15.2728H88.5225V0.213132H91.8105ZM104.749 0.213132V15.2728H101.762V14.2265C101.248 14.74 100.394 15.5731 98.7501 15.5731C97.6396 15.5731 96.4854 15.1469 95.6125 14.2943C93.9879 12.7395 93.9879 10.4967 93.9879 9.77015C93.9879 5.57048 96.3787 3.84121 98.624 3.84121C100.098 3.84121 100.971 4.5242 101.572 4.96984V0.213132H104.754H104.749ZM101.631 9.70233C101.631 9.18888 101.631 7.80352 100.928 6.951C100.777 6.75724 100.307 6.29222 99.6472 6.29222C97.3195 6.29222 97.3195 9.2131 97.3195 9.70717C97.3195 11.2621 97.7462 13.1609 99.4145 13.1609C99.7782 13.1609 100.161 13.0349 100.481 12.8218C101.636 12.0322 101.636 10.3272 101.636 9.70717L101.631 9.70233Z" fill="#F2F1EF"/>
</svg>
