<svg width="194" height="30" viewBox="0 0 194 30" fill="none" xmlns="http://www.w3.org/2000/svg">
<path d="M0 0.397195H10.7706C13.6917 0.397195 16.3351 0.514547 18.0286 1.07423C21.4605 2.18457 22.8404 4.92882 22.8404 7.59183C22.8404 9.09937 22.4461 10.0201 22.3297 10.2909C21.0662 13.1526 18.387 13.7122 16.8816 14.0282C18.5752 14.308 20.8243 14.6601 22.3655 16.4114C23.3512 17.4856 23.9067 19.0383 23.9067 20.627C23.9067 22.8116 22.7598 25.8718 19.292 27.4245C17.2042 28.3362 14.9551 28.4626 11.7562 28.4626H0V0.397195ZM6.6308 5.64197V11.4825H11.8817C13.4587 11.4464 16.0214 11.3652 16.0214 8.45844C16.0214 5.75932 13.6917 5.63294 12.3476 5.63294H6.6308V5.64197ZM6.6308 16.5738V23.3713H11.4874C13.8171 23.3352 16.8548 23.2539 16.8548 20.0312C16.8548 16.6551 14.0949 16.61 12.6702 16.5738H6.6308ZM33.7812 9.85765C35.1253 8.70217 36.5859 7.79043 39.74 7.47448V12.8817L37.7238 13.1977C34.8027 13.7122 33.9335 14.1546 33.9335 16.7724V28.4626H27.8583V7.67308H33.7723V9.85765H33.7812ZM63.4495 18.0453C63.4495 23.29 60.4478 29.0584 52.4012 29.0584C46.6037 29.0584 41.317 25.7183 41.317 18.0453C41.317 11.6902 45.3045 6.63495 53.1897 7.07728C61.5947 7.55572 63.4495 14.2719 63.4495 18.0453ZM48.4586 13.956C47.7059 15.1476 47.4281 16.5829 47.4281 18.0092C47.4281 21.3041 49.0052 24.2108 52.4012 24.2108C55.7972 24.2108 57.2937 21.5478 57.2937 18.289C57.2937 15.9871 56.7381 14.1907 55.6001 13.0803C54.3367 11.8888 52.9209 11.8436 52.0517 11.9249C50.3134 12.0422 49.2919 12.638 48.4586 13.956ZM88.1089 18.0453C88.1089 23.29 85.1072 29.0584 77.0606 29.0584C71.2631 29.0584 65.9764 25.7183 65.9764 18.0453C65.9764 11.6902 69.9639 6.63495 77.8491 7.07728C86.2541 7.55572 88.1089 14.2719 88.1089 18.0453ZM73.118 13.956C72.3653 15.1476 72.0875 16.5829 72.0875 18.0092C72.0875 21.3041 73.6646 24.2108 77.0606 24.2108C80.4566 24.2108 81.953 21.5478 81.953 18.289C81.953 15.9871 81.3975 14.1907 80.2595 13.0803C78.9961 11.8888 77.5803 11.8436 76.7111 11.9249C74.9728 12.0422 73.9513 12.638 73.118 13.956ZM92.0157 0.397195H97.9745V14.8226L104.641 7.70918H111.944L104.838 15.1024L112.849 28.4536H105.824L100.537 19.5077L97.9297 21.9721V28.4536H92.0068V0.397195H92.0157ZM116.048 5.64197C116.048 4.61287 116.129 3.21366 116.917 2.10333C117.67 1.0652 119.363 0 122.204 0C123.422 0 124.65 0.198597 125.833 0.361086V4.92882H124.372C122.078 4.92882 121.962 5.40726 122.007 8.18762H126.075V11.9249H122.051V28.4626H116.012V11.9249H112.777V8.18762H116.048V5.64197ZM129.112 0.361086H135.107V5.09131H129.112V0.361086ZM129.112 7.67308H135.107V28.4626H129.112V7.67308ZM159.811 23.1727C159.103 24.2469 158.386 25.276 157.329 26.278C155.555 27.948 152.867 29.2209 149.56 29.2209C143.44 29.2209 139.139 25.285 139.139 18.4876C139.139 13.4775 141.585 7.04118 149.713 7.04118C150.931 7.04118 154.489 7.15853 157.132 10.0201C159.811 12.9178 159.972 16.9801 160.053 19.3181H145.34C145.295 21.8999 146.756 24.4816 150.035 24.4816C153.315 24.4816 154.498 22.2971 155.241 20.8256L159.82 23.1727H159.811ZM153.772 15.4996C153.655 14.624 153.494 13.4685 152.625 12.5568C151.872 11.7985 150.734 11.4013 149.668 11.4013C148.207 11.4013 147.186 12.1144 146.594 12.7554C145.77 13.6671 145.564 14.624 145.367 15.4996H153.772ZM169.641 0.397195V28.4626H163.566V0.397195H169.641ZM193.548 0.397195V28.4626H188.028V26.5127C187.078 27.4696 185.501 29.0223 182.463 29.0223C180.411 29.0223 178.279 28.2279 176.666 26.6391C173.664 23.7414 173.664 19.5618 173.664 18.2078C173.664 10.3812 178.082 7.15853 182.23 7.15853C184.954 7.15853 186.567 8.43136 187.678 9.26185V0.397195H193.557H193.548ZM187.786 18.0814C187.786 17.1245 187.786 14.5427 186.487 12.954C186.209 12.5929 185.34 11.7263 184.121 11.7263C179.82 11.7263 179.82 17.1696 179.82 18.0904C179.82 20.9881 180.609 24.5268 183.691 24.5268C184.363 24.5268 185.071 24.2921 185.662 23.8949C187.795 22.4234 187.795 19.2459 187.795 18.0904L187.786 18.0814Z" fill="#F2F1EF"/>
</svg>
