<svg width="120" height="18" viewBox="0 0 120 18" fill="none" xmlns="http://www.w3.org/2000/svg">
<path d="M0 0.242926H6.64394C8.44588 0.242926 10.0765 0.314699 11.1211 0.657004C13.2381 1.33609 14.0894 3.01449 14.0894 4.64319C14.0894 5.56521 13.8462 6.12835 13.7743 6.29399C12.9949 8.04416 11.3422 8.38646 10.4136 8.5797C11.4583 8.75085 12.8457 8.96617 13.7964 10.0373C14.4044 10.6943 14.7471 11.6439 14.7471 12.6156C14.7471 13.9517 14.0396 15.8233 11.9005 16.7729C10.6126 17.3305 9.22524 17.4078 7.25196 17.4078H0V0.242926ZM4.09028 3.45065V7.02276H7.32934C8.30217 7.00068 9.883 6.95099 9.883 5.17321C9.883 3.52242 8.44588 3.44513 7.61677 3.44513H4.09028V3.45065ZM4.09028 10.1366V14.294H7.08614C8.52326 14.2719 10.3971 14.2222 10.3971 12.2512C10.3971 10.1863 8.69461 10.1587 7.81575 10.1366H4.09028ZM20.8383 6.02898C21.6674 5.32228 22.5684 4.76466 24.5141 4.57142V7.87852L23.2704 8.07176C21.4685 8.38646 20.9323 8.65699 20.9323 10.2581V17.4078H17.1847V4.69288H20.8328V6.02898H20.8383ZM39.1396 11.0366C39.1396 14.2443 37.2879 17.7722 32.3243 17.7722C28.748 17.7722 25.4869 15.7294 25.4869 11.0366C25.4869 7.14975 27.9466 4.05796 32.8107 4.3285C37.9954 4.62111 39.1396 8.72876 39.1396 11.0366ZM29.8922 8.53553C29.4279 9.26431 29.2566 10.1422 29.2566 11.0145C29.2566 13.0297 30.2294 14.8074 32.3243 14.8074C34.4192 14.8074 35.3422 13.1787 35.3422 11.1856C35.3422 9.77776 34.9995 8.67907 34.2976 7.99999C33.5182 7.27121 32.6449 7.2436 32.1087 7.29329C31.0364 7.36507 30.4063 7.72946 29.8922 8.53553ZM54.351 11.0366C54.351 14.2443 52.4993 17.7722 47.5357 17.7722C43.9595 17.7722 40.6983 15.7294 40.6983 11.0366C40.6983 7.14975 43.158 4.05796 48.0221 4.3285C53.2068 4.62111 54.351 8.72876 54.351 11.0366ZM45.1036 8.53553C44.6393 9.26431 44.468 10.1422 44.468 11.0145C44.468 13.0297 45.4408 14.8074 47.5357 14.8074C49.6306 14.8074 50.5537 13.1787 50.5537 11.1856C50.5537 9.77776 50.211 8.67907 49.509 7.99999C48.7296 7.27121 47.8563 7.2436 47.3201 7.29329C46.2478 7.36507 45.6177 7.72946 45.1036 8.53553ZM56.7609 0.242926H60.4367V9.06555L64.5491 4.71497H69.0539L64.6707 9.2367L69.6122 17.4023H65.2787L62.0175 11.931L60.409 13.4382V17.4023H56.7554V0.242926H56.7609ZM71.5854 3.45065C71.5854 2.82125 71.6352 1.96549 72.1216 1.2864C72.5859 0.651483 73.6306 0 75.3828 0C76.1345 0 76.8918 0.121463 77.6214 0.220842V3.01449H76.7204C75.3054 3.01449 75.2335 3.3071 75.2612 5.00758H77.7706V7.29329H75.2888V17.4078H71.5633V7.29329H69.568V5.00758H71.5854V3.45065ZM79.6444 0.220842H83.3422V3.11387H79.6444V0.220842ZM79.6444 4.69288H83.3422V17.4078H79.6444V4.69288ZM98.5813 14.1725C98.1447 14.8295 97.7025 15.4589 97.0502 16.0717C95.9558 17.0931 94.2976 17.8716 92.258 17.8716C88.4827 17.8716 85.8296 15.4644 85.8296 11.3071C85.8296 8.24291 87.3386 4.30641 92.3519 4.30641C93.1037 4.30641 95.298 4.37818 96.9286 6.12835C98.5813 7.90061 98.6808 10.3851 98.7306 11.815H89.6545C89.6269 13.394 90.5279 14.9731 92.5509 14.9731C94.5739 14.9731 95.3036 13.637 95.7623 12.737L98.5868 14.1725H98.5813ZM94.8558 9.47963C94.784 8.94409 94.6845 8.23739 94.1483 7.67977C93.684 7.216 92.982 6.97307 92.3243 6.97307C91.4233 6.97307 90.7932 7.40924 90.4284 7.80123C89.9199 8.35885 89.7927 8.94409 89.6711 9.47963H94.8558ZM104.645 0.242926V17.4078H100.897V0.242926H104.645ZM119.392 0.242926V17.4078H115.987V16.2153C115.401 16.8005 114.428 17.7501 112.555 17.7501C111.289 17.7501 109.973 17.2643 108.978 16.2926C107.127 14.5203 107.127 11.9641 107.127 11.1359C107.127 6.3492 109.852 4.37818 112.411 4.37818C114.091 4.37818 115.086 5.15665 115.772 5.66459V0.242926H119.398H119.392ZM115.838 11.0586C115.838 10.4734 115.838 8.8944 115.036 7.92269C114.865 7.70185 114.329 7.17183 113.577 7.17183C110.924 7.17183 110.924 10.501 110.924 11.0642C110.924 12.8364 111.41 15.0007 113.312 15.0007C113.726 15.0007 114.163 14.8571 114.528 14.6142C115.843 13.7143 115.843 11.7709 115.843 11.0642L115.838 11.0586Z" fill="#002540"/>
</svg>
