<svg width="205" height="31" viewBox="0 0 205 31" fill="none" xmlns="http://www.w3.org/2000/svg">
<path d="M0 0.416575H11.3932C14.4832 0.416575 17.2794 0.539654 19.0708 1.12665C22.7011 2.29116 24.1608 5.16932 24.1608 7.96227C24.1608 9.54336 23.7437 10.5091 23.6205 10.7931C22.2841 13.7943 19.45 14.3813 17.8576 14.7127C19.649 15.0062 22.0281 15.3754 23.6584 17.2121C24.7011 18.3388 25.2887 19.9672 25.2887 21.6335C25.2887 23.9247 24.0755 27.1342 20.4073 28.7626C18.1988 29.7189 15.8197 29.8514 12.4358 29.8514H0V0.416575ZM7.01412 5.91726V12.0428H12.5685C14.2368 12.0049 16.9476 11.9197 16.9476 8.87116C16.9476 6.04034 14.4832 5.9078 13.0614 5.9078H7.01412V5.91726ZM7.01412 17.3826V24.5117H12.1515C14.6159 24.4738 17.8291 24.3886 17.8291 21.0087C17.8291 17.4678 14.9097 17.4204 13.4027 17.3826H7.01412ZM35.7341 10.3386C37.1559 9.12679 38.7009 8.17056 42.0373 7.83919V13.5103L39.9047 13.8417C36.8147 14.3813 35.8952 14.8452 35.8952 17.5908V29.8514H29.4688V8.04748H35.7246V10.3386H35.7341ZM67.1176 18.9258C67.1176 24.4265 63.9422 30.4763 55.4305 30.4763C49.2979 30.4763 43.7056 26.9733 43.7056 18.9258C43.7056 12.2606 47.9235 6.9587 56.2646 7.42262C65.1555 7.9244 67.1176 14.9683 67.1176 18.9258ZM51.26 14.6369C50.4638 15.8867 50.1699 17.392 50.1699 18.8879C50.1699 22.3436 51.8381 25.3922 55.4305 25.3922C59.0229 25.3922 60.6058 22.5992 60.6058 19.1814C60.6058 16.7672 60.0181 14.8831 58.8144 13.7186C57.4779 12.4689 55.9803 12.4215 55.0608 12.5067C53.222 12.6298 52.1415 13.2547 51.26 14.6369ZM93.2025 18.9258C93.2025 24.4265 90.0272 30.4763 81.5155 30.4763C75.3828 30.4763 69.7905 26.9733 69.7905 18.9258C69.7905 12.2606 74.0085 6.9587 82.3496 7.42262C91.2404 7.9244 93.2025 14.9683 93.2025 18.9258ZM77.3449 14.6369C76.5487 15.8867 76.2549 17.392 76.2549 18.8879C76.2549 22.3436 77.9231 25.3922 81.5155 25.3922C85.1078 25.3922 86.6907 22.5992 86.6907 19.1814C86.6907 16.7672 86.1031 14.8831 84.8993 13.7186C83.5628 12.4689 82.0652 12.4215 81.1458 12.5067C79.307 12.6298 78.2264 13.2547 77.3449 14.6369ZM97.3351 0.416575H103.638V15.5458L110.69 8.08535H118.415L110.899 15.8393L119.373 29.8419H111.942L106.349 20.4595L103.591 23.0442V29.8419H97.3257V0.416575H97.3351ZM122.757 5.91726C122.757 4.83795 122.842 3.37047 123.676 2.20596C124.472 1.11718 126.264 0 129.268 0C130.557 0 131.856 0.208288 133.107 0.378705V5.16932H131.562C129.136 5.16932 129.012 5.6711 129.06 8.58713H133.363V12.5067H129.107V29.8514H122.719V12.5067H119.297V8.58713H122.757V5.91726ZM136.576 0.378705H142.917V5.33974H136.576V0.378705ZM136.576 8.04748H142.917V29.8514H136.576V8.04748ZM169.05 24.3034C168.301 25.43 167.543 26.5093 166.424 27.5602C164.547 29.3118 161.704 30.6467 158.206 30.6467C151.732 30.6467 147.183 26.5188 147.183 19.3897C147.183 14.1352 149.77 7.38475 158.367 7.38475C159.657 7.38475 163.42 7.50782 166.216 10.5091C169.05 13.5482 169.22 17.8086 169.306 20.2607H153.742C153.695 22.9684 155.24 25.6762 158.709 25.6762C162.178 25.6762 163.429 23.385 164.216 21.8418L169.059 24.3034H169.05ZM162.661 16.2559C162.538 15.3375 162.367 14.1257 161.448 13.1695C160.652 12.3742 159.448 11.9576 158.32 11.9576C156.775 11.9576 155.695 12.7055 155.069 13.3777C154.197 14.334 153.979 15.3375 153.77 16.2559H162.661ZM179.448 0.416575V29.8514H173.021V0.416575H179.448ZM204.736 0.416575V29.8514H198.898V27.8064C197.893 28.81 196.225 30.4384 193.012 30.4384C190.841 30.4384 188.585 29.6053 186.879 27.939C183.704 24.8998 183.704 20.5163 183.704 19.0962C183.704 10.8878 188.377 7.50782 192.765 7.50782C195.647 7.50782 197.353 8.84276 198.528 9.71378V0.416575H204.746H204.736ZM198.642 18.9636C198.642 17.9601 198.642 15.2523 197.267 13.586C196.974 13.2073 196.054 12.2984 194.765 12.2984C190.215 12.2984 190.215 18.0074 190.215 18.9731C190.215 22.0122 191.049 25.7235 194.31 25.7235C195.021 25.7235 195.77 25.4774 196.395 25.0608C198.651 23.5176 198.651 20.185 198.651 18.9731L198.642 18.9636Z" fill="#F2F1EF"/>
</svg>
