<svg width="69" height="11" viewBox="0 0 69 11" fill="none" xmlns="http://www.w3.org/2000/svg">
<path d="M0 0.138815H3.79654C4.82622 0.138815 5.75798 0.179828 6.35494 0.375431C7.56465 0.763481 8.05106 1.72256 8.05106 2.65325C8.05106 3.18012 7.91209 3.50192 7.87103 3.59656C7.42568 4.59666 6.48128 4.79226 5.95065 4.90268C6.54761 5.00048 7.3404 5.12352 7.88366 5.73557C8.2311 6.111 8.42693 6.65364 8.42693 7.2089C8.42693 7.97238 8.02264 9.04189 6.80029 9.58452C6.06436 9.90317 5.27157 9.94734 4.14398 9.94734H0V0.138815ZM2.3373 1.9718V4.01301H4.1882C4.7441 4.00039 5.64743 3.97199 5.64743 2.95612C5.64743 2.01281 4.82622 1.96864 4.35244 1.96864H2.3373V1.9718ZM2.3373 5.79236V8.16798H4.04922C4.87044 8.15536 5.94117 8.12697 5.94117 7.00068C5.94117 5.82075 4.96835 5.80498 4.46615 5.79236H2.3373ZM11.9076 3.44513C12.3814 3.0413 12.8962 2.72266 14.008 2.61224V4.50201L13.2974 4.61243C12.2677 4.79226 11.9613 4.94685 11.9613 5.86177V9.94734H9.81983V2.68165H11.9045V3.44513H11.9076ZM22.3655 6.3066C22.3655 8.13959 21.3074 10.1556 18.471 10.1556C16.4275 10.1556 14.5639 8.98825 14.5639 6.3066C14.5639 4.08557 15.9695 2.31884 18.749 2.47343C21.7117 2.64063 22.3655 4.98786 22.3655 6.3066ZM17.0813 4.87744C16.816 5.29389 16.718 5.79551 16.718 6.29399C16.718 7.44552 17.2739 8.46139 18.471 8.46139C19.6681 8.46139 20.1956 7.5307 20.1956 6.39179C20.1956 5.58729 19.9997 4.95947 19.5986 4.57142C19.1533 4.15498 18.6542 4.1392 18.3478 4.1676C17.7351 4.20861 17.375 4.41683 17.0813 4.87744ZM31.0577 6.3066C31.0577 8.13959 29.9996 10.1556 27.1633 10.1556C25.1197 10.1556 23.2562 8.98825 23.2562 6.3066C23.2562 4.08557 24.6617 2.31884 27.4412 2.47343C30.4039 2.64063 31.0577 4.98786 31.0577 6.3066ZM25.7735 4.87744C25.5082 5.29389 25.4103 5.79551 25.4103 6.29399C25.4103 7.44552 25.9662 8.46139 27.1633 8.46139C28.3603 8.46139 28.8878 7.5307 28.8878 6.39179C28.8878 5.58729 28.692 4.95947 28.2909 4.57142C27.8455 4.15498 27.3465 4.1392 27.0401 4.1676C26.4273 4.20861 26.0673 4.41683 25.7735 4.87744ZM32.4348 0.138815H34.5352V5.18031L36.8852 2.69427H39.4594L36.9547 5.27811L39.7784 9.94418H37.3021L35.4386 6.8177L34.5195 7.67898V9.94418H32.4317V0.138815H32.4348ZM40.906 1.9718C40.906 1.61214 40.9344 1.12314 41.2123 0.735087C41.4777 0.372276 42.0746 0 43.0759 0C43.5054 0 43.9382 0.0694074 44.3551 0.126195V1.72256H43.8402C43.0317 1.72256 42.9906 1.88977 43.0064 2.86148H44.4404V4.1676H43.0222V9.94734H40.8933V4.1676H39.7531V2.86148H40.906V1.9718ZM45.5111 0.126195H47.6241V1.77935H45.5111V0.126195ZM45.5111 2.68165H47.6241V9.94734H45.5111V2.68165ZM56.3322 8.09858C56.0827 8.47401 55.83 8.83366 55.4573 9.18386C54.8319 9.76751 53.8843 10.2123 52.7188 10.2123C50.5616 10.2123 49.0455 8.83682 49.0455 6.46119C49.0455 4.71024 49.9078 2.46081 52.7725 2.46081C53.2021 2.46081 54.456 2.50182 55.3878 3.50192C56.3322 4.51463 56.389 5.93433 56.4175 6.75144H51.2312C51.2154 7.65374 51.7302 8.55603 52.8862 8.55603C54.0423 8.55603 54.4592 7.79255 54.7213 7.27831L56.3353 8.09858H56.3322ZM54.2033 5.41693C54.1623 5.11091 54.1054 4.70708 53.799 4.38844C53.5337 4.12343 53.1326 3.98461 52.7567 3.98461C52.2419 3.98461 51.8818 4.23385 51.6734 4.45785C51.3828 4.77649 51.3101 5.11091 51.2406 5.41693H54.2033ZM59.7971 0.138815V9.94734H57.6556V0.138815H59.7971ZM68.224 0.138815V9.94734H66.2784V9.26588C65.9436 9.6003 65.3877 10.1429 64.3169 10.1429C63.5936 10.1429 62.8419 9.86531 62.2734 9.31005C61.2153 8.29733 61.2152 6.83662 61.2152 6.36339C61.2152 3.62811 62.7724 2.50182 64.2348 2.50182C65.195 2.50182 65.7635 2.94666 66.1552 3.23691V0.138815H68.2272H68.224ZM66.1931 6.31922C66.1931 5.98481 66.1931 5.08251 65.7351 4.52725C65.6372 4.40106 65.3308 4.09819 64.9012 4.09819C63.3852 4.09819 63.3852 6.00058 63.3852 6.32238C63.3852 7.3351 63.6631 8.57181 64.7496 8.57181C64.9865 8.57181 65.236 8.48978 65.4445 8.35097C66.1962 7.83672 66.1962 6.7262 66.1962 6.32238L66.1931 6.31922Z" fill="#002540"/>
</svg>
