<svg width="112" height="17" viewBox="0 0 112 17" fill="none" xmlns="http://www.w3.org/2000/svg">
<path d="M0 0.226989H6.20809C7.89182 0.226989 9.41543 0.294055 10.3916 0.613903C12.3697 1.24844 13.1651 2.81673 13.1651 4.33859C13.1651 5.20012 12.9378 5.72633 12.8707 5.88109C12.1424 7.51645 10.5982 7.8363 9.73049 8.01686C10.7066 8.17678 12.003 8.37798 12.8913 9.37879C13.4595 9.9927 13.7797 10.88 13.7797 11.788C13.7797 13.0364 13.1186 14.7853 11.1198 15.6726C9.91642 16.1936 8.62005 16.2659 6.77622 16.2659H0V0.226989ZM3.82195 3.22428V6.56206H6.84853C7.75753 6.54142 9.23467 6.49499 9.23467 4.83384C9.23467 3.29135 7.89182 3.21912 7.1171 3.21912H3.82195V3.22428ZM3.82195 9.47165V13.3563H6.62128C7.96412 13.3356 9.71499 13.2892 9.71499 11.4475C9.71499 9.51808 8.12423 9.49229 7.30303 9.47165H3.82195ZM19.4713 5.63347C20.246 4.97313 21.0879 4.45209 22.9059 4.27153V7.36168L21.7438 7.54224C20.0601 7.8363 19.5591 8.08908 19.5591 9.58515V16.2659H16.0574V4.38502H19.4661V5.63347H19.4713ZM36.572 10.3125C36.572 13.3098 34.8418 16.6063 30.2038 16.6063C26.8621 16.6063 23.8149 14.6976 23.8149 10.3125C23.8149 6.68071 26.1132 3.79176 30.6583 4.04454C35.5028 4.31796 36.572 8.15614 36.572 10.3125ZM27.9312 7.97558C27.4974 8.65655 27.3373 9.47681 27.3373 10.2919C27.3373 12.1749 28.2463 13.836 30.2038 13.836C32.1612 13.836 33.0237 12.3142 33.0237 10.4518C33.0237 9.13633 32.7035 8.10971 32.0476 7.47518C31.3194 6.79421 30.5033 6.76841 30.0023 6.81484C29.0004 6.88191 28.4116 7.22239 27.9312 7.97558ZM50.7855 10.3125C50.7855 13.3098 49.0553 16.6063 44.4173 16.6063C41.0757 16.6063 38.0284 14.6976 38.0284 10.3125C38.0284 6.68071 40.3268 3.79176 44.8718 4.04454C49.7164 4.31796 50.7855 8.15614 50.7855 10.3125ZM42.1448 7.97558C41.7109 8.65655 41.5508 9.47681 41.5508 10.2919C41.5508 12.1749 42.4598 13.836 44.4173 13.836C46.3748 13.836 47.2373 12.3142 47.2373 10.4518C47.2373 9.13633 46.9171 8.10971 46.2611 7.47518C45.5329 6.79421 44.7169 6.76841 44.2159 6.81484C43.2139 6.88191 42.6251 7.22239 42.1448 7.97558ZM53.0374 0.226989H56.4719V8.47083L60.3146 4.40566H64.5239L60.4282 8.63076L65.0455 16.2607H60.9963L57.9491 11.1483L56.4461 12.5566V16.2607H53.0322V0.226989H53.0374ZM66.8894 3.22428C66.8894 2.63617 66.9358 1.83655 67.3903 1.20201C67.8242 0.608745 68.8003 0 70.4376 0C71.14 0 71.8476 0.113495 72.5293 0.206354V2.81673H71.6875C70.3653 2.81673 70.2981 3.09015 70.3239 4.67908H72.6688V6.81484H70.3498V16.2659H66.8687V6.81484H65.0042V4.67908H66.8894V3.22428ZM74.4196 0.206354H77.8749V2.90959H74.4196V0.206354ZM74.4196 4.38502H77.8749V16.2659H74.4196V4.38502ZM92.1143 13.2428C91.7062 13.8567 91.293 14.4448 90.6836 15.0174C89.661 15.9718 88.1115 16.6992 86.2057 16.6992C82.6782 16.6992 80.199 14.4499 80.199 10.5653C80.199 7.70217 81.609 4.0239 86.2935 4.0239C86.9959 4.0239 89.0464 4.09097 90.57 5.72633C92.1142 7.38232 92.2072 9.7038 92.2537 11.0399H83.7731C83.7473 12.5154 84.5891 13.9908 86.4794 13.9908C88.3698 13.9908 89.0515 12.7424 89.4802 11.9015L92.1194 13.2428H92.1143ZM88.6332 8.85775C88.566 8.35734 88.4731 7.69701 87.9721 7.17596C87.5382 6.74262 86.8823 6.51563 86.2677 6.51563C85.4258 6.51563 84.837 6.92318 84.4962 7.28946C84.021 7.8105 83.9022 8.35734 83.7886 8.85775H88.6332ZM97.78 0.226989V16.2659H94.2783V0.226989H97.78ZM111.56 0.226989V16.2659H108.378V15.1515C107.831 15.6984 106.922 16.5857 105.171 16.5857C103.988 16.5857 102.759 16.1317 101.829 15.2238C100.099 13.5678 100.099 11.1792 100.099 10.4054C100.099 5.93268 102.645 4.09097 105.037 4.09097C106.607 4.09097 107.536 4.81837 108.177 5.29298V0.226989H111.565H111.56ZM108.239 10.3332C108.239 9.78634 108.239 8.31091 107.49 7.40295C107.33 7.1966 106.829 6.70135 106.126 6.70135C103.647 6.70135 103.647 9.81214 103.647 10.3383C103.647 11.9943 104.102 14.0166 105.878 14.0166C106.266 14.0166 106.674 13.8825 107.015 13.6555C108.244 12.8146 108.244 10.9987 108.244 10.3383L108.239 10.3332Z" fill="#F2F1EF"/>
</svg>
